<svg xmlns="http://www.w3.org/2000/svg" viewBox="0 0 33.867 33.867" id="Brain"><path fill="#595bd4" d="M18.365 1.058c-6.21 0-11.245 5.035-11.245 11.246l.01 2.498-2.717 4.159c-.813 1.114-.193 2.645 1.273 2.645h1.44v2.912c0 1.794 1.487 2.692 3.09 2.412l2.28-.397-.364 3.63c-.146 1.458.684 2.645 2.15 2.645h8.444a2.64 2.64 0 0 0 2.645-2.645c0-9.954 4.246-11.066 4.246-17.859 0-6.21-5.035-11.246-11.246-11.246z" paint-order="markers fill stroke" class="colora8d0ff svgShape"></path><path fill="#167ffc" d="m12.036 29.501 13.89-1.587c.729-.084 1.324.59 1.324 1.322v2.25a1.32 1.32 0 0 1-1.323 1.322h-13.89a1.32 1.32 0 0 1-1.324-1.323v-.661c0-.733.595-1.24 1.323-1.323z" paint-order="markers fill stroke" class="color0066ff svgShape"></path><path fill="#53d86a" d="M17.803 22.33c-.57-.071-1.076-.586-.966-1.35l.59-4.385-2.94.16c-1.727.101-2.363-1.543-1.782-2.866l2.667-6.892c.601-1.306 2.352-.734 2.156.623l-.658 5.004 3.513-.229c1.084-.085 1.923 1.267 1.23 2.844l-2.62 6.364c-.263.571-.746.783-1.19.728z" color="#000" font-family="sans-serif" font-weight="400" overflow="visible" paint-order="markers fill stroke" style="line-height:normal;font-variant-ligatures:normal;font-variant-position:normal;font-variant-caps:normal;font-variant-numeric:normal;font-variant-alternates:normal;font-variant-east-asian:normal;font-feature-settings:normal;font-variation-settings:normal;text-indent:0;text-align:start;text-decoration-line:none;text-decoration-style:solid;text-decoration-color:#000;text-transform:none;text-orientation:mixed;shape-padding:0;shape-margin:0;inline-size:0;isolation:auto;mix-blend-mode:normal" class="colorffffff svgShape"></path></svg>