<svg xmlns="http://www.w3.org/2000/svg" viewBox="0 0 48 48" id="Family"><path fill="#167ffc" d="M37.669,4.133a8.357,8.357,0,0,0-8.375,8.341V22.512H46.045V12.474A8.358,8.358,0,0,0,37.669,4.133Z" class="color374658 svgShape"></path><path fill="#8b8de9" d="M31.789,33.055a9.4,9.4,0,0,0,1.478,4.476c1.1,1.835,1.1,2.742.756,3.513a26.269,26.269,0,0,1-2.224,3.9l-.007,2.233H43.539V44.94a26.269,26.269,0,0,1-2.224-3.9c-.342-.771-.346-1.678.756-3.513a9.545,9.545,0,0,0,1.469-4.3V47.173H47.25v-17.8a2.25,2.25,0,0,0-1.145-1.958L40.14,24.049H35.2L29.233,27.42a2.25,2.25,0,0,0-1.145,1.958v17.8h3.7Z" class="color8bb5e9 svgShape"></path><rect width="3.711" height="12.275" x="43.539" y="34.898" fill="#fce1c4" class="colorfcd3c4 svgShape"></rect><rect width="3.711" height="12.275" x="28.081" y="34.898" fill="#fce1c4" class="colorfcd3c4 svgShape"></rect><polygon fill="#595bd4" points="31.786 30.955 31.786 33.308 32.119 30.955 31.786 30.955" class="color6b98dd svgShape"></polygon><polygon fill="#595bd4" points="43.539 30.955 43.539 33.308 43.206 30.955 43.539 30.955" class="color6b98dd svgShape"></polygon><path fill="#fce1c4" d="M37.638,21.257a4.707,4.707,0,0,1-2.439-.692v3.377a2.471,2.471,0,0,0,4.941,0v-3.4a4.711,4.711,0,0,1-2.482.715Z" class="colorfcd3c4 svgShape"></path><path fill="#ffdbb5" d="M37.638,21.257a4.707,4.707,0,0,1-2.439-.692v2a6.5,6.5,0,0,0,2.439.475h.02a6.508,6.508,0,0,0,2.482-.49V20.542a4.711,4.711,0,0,1-2.482.715Z" class="colorffc7b5 svgShape"></path><path fill="#fe9526" d="M21.648,24.338l-6.922-2.484H9.74l-7.055,2.49A2.9,2.9,0,0,0,.75,27.072v20.1H23.569V27.061A2.9,2.9,0,0,0,21.648,24.338Z" class="colored667d svgShape"></path><path fill="#fce1c4" d="M12.2,19.315a4.756,4.756,0,0,1-2.462-.7v3.137a2.493,2.493,0,0,0,4.986,0v-3.16a4.747,4.747,0,0,1-2.5.721Z" class="colorfcd3c4 svgShape"></path><path fill="#ffdbb5" d="M12.2,19.315a4.756,4.756,0,0,1-2.462-.7v2.019a6.564,6.564,0,0,0,2.462.479h.021a6.557,6.557,0,0,0,2.5-.495V18.594a4.747,4.747,0,0,1-2.5.721Z" class="colorffc7b5 svgShape"></path><rect width="4.495" height="12.139" x=".75" y="35.034" fill="#fce1c4" class="colorfcd3c4 svgShape"></rect><rect width="4.495" height="12.139" x="19.074" y="35.034" fill="#fce1c4" class="colorfcd3c4 svgShape"></rect><polygon fill="#ea9b48" points="5.578 30.783 5.245 30.783 5.245 36.688 5.578 30.783" class="colorea4867 svgShape"></polygon><polygon fill="#ea9b48" points="18.741 30.783 19.074 30.783 19.074 36.688 18.741 30.783" class="colorea4867 svgShape"></polygon><path fill="#ea9b48" d="M23.569,47.173V27.061a2.9,2.9,0,0,0-1.921-2.723l-3.027-1.086c.031.067.054.131.09.2a5.992,5.992,0,0,0,1.57,1.789c-.907-.2-1.807-.344-1.926.71a2.618,2.618,0,0,0,1.1,2.643,2.779,2.779,0,0,0,.9.142,3.583,3.583,0,0,0,1.8,2.422v1.99c0,.024.006.047.007.071h-.007l-4.98,1.788a2.083,2.083,0,0,0-1.382,1.959V47.173Z" class="colorea4867 svgShape"></path><path fill="#53d86a" d="M18.135,34.181l4.98-1.788H26.7l5.076,1.792a2.084,2.084,0,0,1,1.393,1.963V47.173H16.753V36.14A2.082,2.082,0,0,1,18.135,34.181Z" class="color4fd79c svgShape"></path><path fill="#fce1c4" d="M24.932,30.567a3.41,3.41,0,0,0,1.77-.5v2.258a1.794,1.794,0,0,1-3.587,0V30.048a3.417,3.417,0,0,0,1.8.519Z" class="colorfcd3c4 svgShape"></path><path fill="#ffdbb5" d="M24.932,30.567a3.41,3.41,0,0,0,1.77-.5v1.453a4.714,4.714,0,0,1-1.77.345h-.016a4.737,4.737,0,0,1-1.8-.356V30.048a3.417,3.417,0,0,0,1.8.519Z" class="colorffc7b5 svgShape"></path><rect width="3.234" height="5.297" x="29.937" y="41.876" fill="#fce1c4" transform="rotate(180 31.553 44.525)" class="colorfcd3c4 svgShape"></rect><rect width="3.234" height="5.297" x="16.753" y="41.876" fill="#fce1c4" transform="rotate(180 18.37 44.525)" class="colorfcd3c4 svgShape"></rect><polygon fill="#1fc03b" points="29.697 38.817 29.937 38.817 29.937 43.066 29.697 38.817" class="color1fc091 svgShape"></polygon><polygon fill="#1fc03b" points="20.226 38.817 19.987 38.817 19.987 43.066 20.226 38.817" class="color1fc091 svgShape"></polygon><path fill="#fce1c4" d="M33.551,12.249c1.728-1.709,1.9-2.492,1.9-2.492a5.276,5.276,0,0,0,2.63,2.991,15.574,15.574,0,0,0,4.542,1.592v2.3a4.939,4.939,0,0,1-4.94,4.94h-.02a4.939,4.939,0,0,1-4.94-4.94v-2.3A3.256,3.256,0,0,1,33.551,12.249Z" class="colorfcd3c4 svgShape"></path><path fill="#ffdbb5" d="M20.144 11.751c-.168-1.465-1.442-1.261-2.725-.986-.028.006-.12.017-.179.024V14.62a4.751 4.751 0 0 1-.108 1 4.39 4.39 0 0 0 1.459-.2C19.618 15.024 20.328 13.348 20.144 11.751zM7.468 10.789c-.059-.007-.15-.018-.178-.024-1.284-.275-2.557-.479-2.725.986-.184 1.6.526 3.273 1.552 3.674a4.61 4.61 0 0 0 1.459.2 4.817 4.817 0 0 1-.108-1z" class="colorffc7b5 svgShape"></path><path fill="#fce1c4" d="M18.981.833a2.645,2.645,0,0,1-2.193.95c-1.5-.3-2.618-1.152-5.568-1.152-2.189,0-5.931.441-6.623,3.8-.82,3.987,2.693,6.333,2.693,6.333V14.62a5.025,5.025,0,0,0,5.054,4.995h.021a5.025,5.025,0,0,0,5.054-4.995V10.765a8.388,8.388,0,0,0,2.222-2.487,6.3,6.3,0,0,0,.693-3.033A6.939,6.939,0,0,0,18.981.833Z" class="colorfcd3c4 svgShape"></path><path fill="#167ffc" d="M17.419,10.765s-.6-3.369-1.469-2.75a4.564,4.564,0,0,1-3.916,1.036A7.474,7.474,0,0,1,9.129,8.035,7.528,7.528,0,0,1,8.008,9.969a6.976,6.976,0,0,1-.718.8S3.777,8.419,4.6,4.432c.692-3.36,4.434-3.8,6.623-3.8,2.95,0,4.072.853,5.568,1.152a2.643,2.643,0,0,0,2.193-.95,6.94,6.94,0,0,1,1.353,4.413,6.294,6.294,0,0,1-.693,3.032A8.388,8.388,0,0,1,17.419,10.765Z" class="color374658 svgShape"></path><path fill="#ffdbb5" d="M19.217 25.125c.121-1.054 1.037-.908 1.961-.71.02 0 .086.012.128.017v2.757a3.442 3.442 0 0 0 .078.722 3.166 3.166 0 0 1-1.05-.143A2.6 2.6 0 0 1 19.217 25.125zM28.337 24.432c.043 0 .108-.013.128-.017.924-.2 1.84-.344 1.961.71a2.6 2.6 0 0 1-1.117 2.643 3.316 3.316 0 0 1-1.05.143 3.377 3.377 0 0 0 .078-.722z" class="colorffc7b5 svgShape"></path><path fill="#fce1c4" d="M20.054,17.269a1.9,1.9,0,0,0,1.578.683,12.89,12.89,0,0,1,4.006-.829c1.575,0,4.267.318,4.765,2.736a4.654,4.654,0,0,1-1.938,4.556v2.774a3.615,3.615,0,0,1-3.636,3.593h-.015a3.615,3.615,0,0,1-3.636-3.593V24.415a6.042,6.042,0,0,1-1.6-1.789,4.525,4.525,0,0,1-.5-2.182A4.993,4.993,0,0,1,20.054,17.269Z" class="colorfcd3c4 svgShape"></path><path fill="#53547d" d="M21.178,24.415s.429-2.424,1.057-1.979a3.285,3.285,0,0,0,2.817.746,5.388,5.388,0,0,0,2.09-.731,5.413,5.413,0,0,0,.807,1.391,4.961,4.961,0,0,0,.516.573A4.654,4.654,0,0,0,30.4,19.859c-.5-2.418-3.19-2.736-4.765-2.736a12.89,12.89,0,0,0-4.006.829,1.9,1.9,0,0,1-1.578-.683,4.993,4.993,0,0,0-.973,3.175,4.525,4.525,0,0,0,.5,2.182A6.042,6.042,0,0,0,21.178,24.415Z" class="color53677d svgShape"></path></svg>