<svg xmlns="http://www.w3.org/2000/svg" viewBox="0 0 24 24" id="Health"><path d="M5.072 0A5.061 5.061 0 0 0 0 5.072v13.856A5.061 5.061 0 0 0 5.072 24h13.856A5.061 5.061 0 0 0 24 18.928V5.072A5.061 5.061 0 0 0 18.928 0H5.072zm3.069 5.953c1.243 0 2.257.654 2.968 1.563.711-.91 1.725-1.563 2.97-1.563 1.726 0 3.175 1.134 3.687 2.688l-.782 1.187c0-1.354-.914-2.45-2.17-2.765a3.263 3.263 0 0 0-.736-.11 2.849 2.849 0 0 0-2.531 1.5l-.438.813-.437-.813a2.849 2.849 0 0 0-2.531-1.5c-1.608 0-2.933 1.281-2.907 2.875.02 1.219 1.099 2.753 2.438 4.094.183.183.377.359.562.531 1.065.99 2.127 1.794 2.875 2.344.61-.447 1.448-1.038 2.313-1.781.387-.333.773-.71 1.156-1.094.246-.245.466-.495.688-.75l.062.156.375.844c-.137.145-.265.297-.406.437-1.418 1.416-3.056 2.629-3.906 3.25l-.282.188-.28-.188c-.852-.622-2.465-1.805-3.876-3.218s-2.69-3.078-2.719-4.813C4.2 7.673 5.994 5.953 8.141 5.953zm6.593 2.233 1.586 3.699 1.348-2.131.941 3.2h1.157v1H17.86l-.529-1.8-1.182 1.87-1.416-3.301L13.33 14l-1.033-1.553-.754 1.506H9.234v-1h1.692l1.248-2.494.965 1.45 1.595-3.723z" fill="#595bd4" class="color000000 svgShape"></path></svg>