<svg id="SvgjsSvg1001" width="288" height="288" xmlns="http://www.w3.org/2000/svg" version="1.1" xmlns:xlink="http://www.w3.org/1999/xlink" xmlns:svgjs="http://svgjs.com/svgjs"><defs id="SvgjsDefs1002"></defs><g id="SvgjsG1008"><svg xmlns="http://www.w3.org/2000/svg" viewBox="0 0 47.5 47.5" width="288" height="288"><defs><clipPath id="a"><path d="M5 37a4 4 0 0 1-4-4V5a4 4 0 0 1 4-4h28a4 4 0 0 1 4 4v28a4 4 0 0 1-4 4H5z" fill="#000000" class="color000 svgShape"></path></clipPath></defs><g clip-path="url(#a)" transform="matrix(1.25 0 0 -1.25 0 47.5)" fill="#000000" class="color000 svgShape"><path fill="#226089" d="M37-1H-1v38h38V-1z" class="color004a77 svgShape"></path><path fill="#4592af" d="M-1 10v2c.117.049 11.263 4.451 18 16l2-1C11.911 14.847-.497 10.206-1 10" class="colorfe5011 svgShape"></path><path fill="#4592af" d="M21 28s0 2-2 2-2-2-2-2V0h4v28z" class="colorfe5011 svgShape"></path><path fill="#4592af" d="M37 6H1v4h36V6ZM39 10v2c-.117.049-11.264 4.451-18 16l-2-1c7.09-12.153 19.497-16.794 20-17" class="colorfe5011 svgShape"></path><path fill="#4592af" d="M11 9h2v11h-2V9zm16 0h-2v11h2V9zM5 9h2v6H5V9zm28-1h-2v7h2V8z" class="colorfe5011 svgShape"></path><path fill="#e3c4a8" d="M7.5 30A2.5 2.5 0 0 0 5 32.5c0 1.13.755 2.074 1.784 2.383A2.943 2.943 0 0 1 6 35a3 3 0 1 1 0-6c.959 0 1.803.458 2.353 1.159A2.493 2.493 0 0 0 7.5 30M12 34.5a.5.5 0 1 0-1 0 .5.5 0 0 0 1 0M28 25.5a.5.5 0 1 0-1 0 .5.5 0 0 0 1 0M9 25.5a.5.5 0 1 0-1 0 .5.5 0 0 0 1 0M24 32a1 1 0 1 0-2 0 1 1 0 0 0 2 0M6 20a1 1 0 1 0-2 0 1 1 0 0 0 2 0M14 30a1 1 0 1 0-2 0 1 1 0 0 0 2 0M34 20a1 1 0 1 0-2 0 1 1 0 0 0 2 0M28 31.5a.5.5 0 1 0-1 0 .5.5 0 0 0 1 0M33 34a1 1 0 1 0-2 0 1 1 0 0 0 2 0M33 29.5a.5.5 0 1 0-1 0 .5.5 0 0 0 1 0" class="colorfff svgShape"></path></g></svg></g></svg>